inDegrees=no
num_controls=7
num_derivatives=13
num_iterations=96
num_multipliers=7
num_parameters=0
num_slacks=7
num_states=26
objective=0.427800
objective_accelerations=0.054792
objective_balance=0.007058
objective_effort=0.033413
objective_height=0.331444
objective_ligament=0.001093
solver_duration=1221.958563
status=Solve_Succeeded
success=true
DataType=double
version=3
OpenSimVersion=4.5
endheader
time	/jointset/ground_pelvis/pelvis_tilt/value	/jointset/ground_pelvis/pelvis_tx/value	/jointset/ground_pelvis/pelvis_ty/value	/jointset/hip_l/hip_flexion_l/value	/jointset/hip_l/hip_adduction_l/value	/jointset/hip_l/hip_rotation_l/value	/jointset/back/lumbar_extension/value	/jointset/patellofemoral_l/patellar_flexion_l/value	/jointset/knee_l/knee_flexion_l/value	/jointset/knee_l/knee_adduction_l/value	/jointset/knee_l/knee_rotation_l/value	/jointset/ankle_l/ankle_angle_l/value	/jointset/subtalar_l/subtalar_angle_l/value	/jointset/ground_pelvis/pelvis_tilt/speed	/jointset/ground_pelvis/pelvis_tx/speed	/jointset/ground_pelvis/pelvis_ty/speed	/jointset/hip_l/hip_flexion_l/speed	/jointset/hip_l/hip_adduction_l/speed	/jointset/hip_l/hip_rotation_l/speed	/jointset/back/lumbar_extension/speed	/jointset/patellofemoral_l/patellar_flexion_l/speed	/jointset/knee_l/knee_flexion_l/speed	/jointset/knee_l/knee_adduction_l/speed	/jointset/knee_l/knee_rotation_l/speed	/jointset/ankle_l/ankle_angle_l/speed	/jointset/subtalar_l/subtalar_angle_l/speed	/forceset/tau_hip_flexion_l	/forceset/tau_hip_adduction_l	/forceset/tau_hip_rotation_l	/forceset/tau_knee_flexion_l	/forceset/tau_ankle_angle_l	/forceset/tau_subtalar_angle_l	/forceset/tau_lumbar_extension	lambda_cid13_p0	lambda_cid13_p1	lambda_cid13_p2	lambda_cid13_p3	lambda_cid13_p4	lambda_cid13_p5	lambda_cid14_p0	/jointset/ground_pelvis/pelvis_tilt/accel	/jointset/ground_pelvis/pelvis_tx/accel	/jointset/ground_pelvis/pelvis_ty/accel	/jointset/hip_l/hip_flexion_l/accel	/jointset/hip_l/hip_adduction_l/accel	/jointset/hip_l/hip_rotation_l/accel	/jointset/back/lumbar_extension/accel	/jointset/patellofemoral_l/patellar_flexion_l/accel	/jointset/knee_l/knee_flexion_l/accel	/jointset/knee_l/knee_adduction_l/accel	/jointset/knee_l/knee_rotation_l/accel	/jointset/ankle_l/ankle_angle_l/accel	/jointset/subtalar_l/subtalar_angle_l/accel	gamma_cid13_p0	gamma_cid13_p1	gamma_cid13_p2	gamma_cid13_p3	gamma_cid13_p4	gamma_cid13_p5	gamma_cid14_p0
0	-0.155829270203266	0.05695902262451363	0.8978553248798793	0.3774924667018715	-0.2611748293768045	-0.2376784557953732	-0.01265067647494873	0.0322364824372131	0.03223648243721463	-0.1745327664354181	0.1408547013010862	-0.04231377076293093	-0.01171188353061487	0	0	0	0	0	0	0	0	0	0	0	0	0	0.1618176452775579	-0.07855525085844807	-0.05158510450315495	-0.3484924600541077	0.3952114980097543	-0.05795611048316601	-0.09772483111117795	85.2442559353926	6.368321880551184	3.01003782965519	-36.94738996217913	-587.7005897882763	-64.23187067672895	-38.06443539641339	-3.132887703792273	-1.370102782802419	-1.042619801272972	11.80129210312925	-1.428005042373181	3.691333872689825	-5.699769333393119	11.75582289458689	11.75582289459187	0.03570779155399958	0.4180771794186389	3.363521123486372	-0.678653140643755	-7.890596091875684e-08	3.799003176666169e-08	1.902501598561516e-07	4.022847206968392e-08	-1.52644163429603e-08	-1.905290275948912e-07	-2.98603105153835e-08
0.01	-0.1559783786353166	0.05688864267279096	0.8978042762875684	0.3780688757998431	-0.2612456364001361	-0.2374949138033934	-0.01293721651939054	0.03281025610883689	0.03281025610883776	-0.1745327821801773	0.1408718109956621	-0.04215402620616872	-0.01174716869635813	-0.02955566494668911	-0.01429810537280938	-0.01019271325670754	0.1149391129508281	-0.01405885273602044	0.03651013826569739	-0.05696636963324812	0.1141444094561257	0.1141444094561183	3.006163496495664e-05	0.003390313612706034	0.0313938915067502	-0.007085914548161528	0.1448150708972391	-0.08779597961724736	-0.04687505454924089	-0.318052215488331	0.3438040804937029	-0.03282387844357534	-0.08614867781201274	69.54282622807705	-1.679653615646566	4.158607283841886	-24.53991006450217	-587.9698230435631	-78.8578929831485	-38.08126883372454	-2.827011656935818	-1.49297362294668	-1.005049359953505	11.2888051132601	-1.379487763404285	3.601089075089526	-5.643824890030142	11.15220721286446	11.15220721286136	-0.008324902857340975	0.2947407477168709	2.944062882387657	-0.7279199050454067	-9.627598212857184e-08	9.085699217832905e-08	2.072703430118209e-07	5.487281905471594e-08	-1.495333213126403e-07	-1.149800417349796e-07	-3.379798136807604e-08
0.02	-0.1564150648702002	0.05666861982565503	0.8976518101082736	0.3797843928717605	-0.2614539644256659	-0.2369522233744427	-0.01378317108251474	0.0345071653233705	0.03450716532337019	-0.174531493358881	0.1409218702854717	-0.04169699479071576	-0.01185418486621177	-0.05751556056652594	-0.02992857908265109	-0.02028351739679663	0.2278215947896748	-0.02750420043955946	0.07182968739458848	-0.11188290373608	0.2246271085818126	0.2246271085818172	0.0002609131769258695	0.006589919046223115	0.05945737173823287	-0.01434620082204621	0.1278124965169057	-0.09703670837603046	-0.04216500459532612	-0.2876119709225475	0.2923966629776601	-0.007691646403966961	-0.07457252451287344	53.93610165183637	-9.747369071631885	5.313937520812138	-12.37413307336184	-586.8425102177698	-93.3660923694742	-38.13115020802836	-2.813733838421861	-1.636576450208841	-1.022237977949288	11.38996588073293	-1.305304035877006	3.453216045328567	-5.289802227309885	11.02348082849912	11.02348082850797	0.07586577295298158	0.3799355435808551	2.69743886843289	-0.7135274857884836	-1.136460033383868e-07	1.437239525899964e-07	2.242905261674902e-07	6.951716603974797e-08	-2.838022262823202e-07	-3.943105587506798e-08	-3.773565222076859e-08
0.03	-0.1571246425803265	0.0562889762866341	0.8973988583508888	0.3826168035736077	-0.2617936235357637	-0.2360617922272104	-0.01516726352399475	0.03729250686025716	0.03729250686025594	-0.1745268540579208	0.1410033262674373	-0.04097076403445814	-0.01203347284515933	-0.08422681977457484	-0.04588577105991171	-0.03029214652515635	0.3380879784146105	-0.04033200405292224	0.1061078570108299	-0.1645514493111921	0.3319823309556131	0.3319823309555157	0.0006758677598140473	0.009692768253893525	0.08573912727046296	-0.02143512515486032	0.1224648511644966	-0.09048153864879034	-0.04145134618546839	-0.2831473958327548	0.2882110178864349	-0.01128125322048018	-0.0700835200663589	52.47264410349636	-8.097949596891747	5.240342148107294	-12.09608167877357	-586.9081910135507	-89.2264333637165	-38.21226210498128	-2.573857190433093	-1.558122959558392	-0.9880295499768035	10.75907410131391	-1.257212684369183	3.392783370785619	-5.197760435320244	10.52272032889214	10.52272032887102	0.02569538573679906	0.2741540950018439	2.586088782018983	-0.695181642485648	-1.43245445138576e-07	1.520278336548119e-07	2.710333922749115e-07	9.624573290652243e-08	-4.159380177145908e-07	-4.922432914952708e-08	-4.617098606724269e-08
0.04	-0.1580961399282208	0.05575319435022594	0.8970462494682809	0.3865346980112894	-0.2622586995140559	-0.2348330461936134	-0.01706651736376886	0.04113763609829392	0.0411376360982954	-0.1745177881941799	0.1411155496386136	-0.03998320674559813	-0.01228137141452666	-0.1098994881200959	-0.06115625856009647	-0.04021494244141741	0.4449183419571466	-0.05258757407841867	0.1394926646676191	-0.2149151833946433	0.4365846488122782	0.4365846488120227	0.001146225733904867	0.01274339688723133	0.1117226782587297	-0.02806831890598564	0.1171172058120696	-0.08392636892154329	-0.04073768777558426	-0.2786828207429627	0.2840253727952146	-0.01487086003698594	-0.06559451561986802	51.09676575056788	-6.46241001788893	5.167302283116807	-12.03599505755012	-585.6994119337863	-84.967855167289	-38.32235278719551	-2.606015665916326	-1.49923555479364	-1.005071335529554	10.702761864253	-1.190857318303754	3.274543653438117	-4.828839928977706	10.47289992507203	10.47289992506967	0.08694645119347785	0.3694914287143307	2.637797959640254	-0.6223813694507334	-1.730970399406286e-07	1.594128883413418e-07	3.183890972060802e-07	1.232234589461164e-07	-5.480298274244408e-07	-6.077723663294231e-08	-5.469905523317621e-08
0.05	-0.1593198276763914	0.05506770474319835	0.8965945109980841	0.3915052102435652	-0.2628432129507843	-0.2332750243405496	-0.01945823584566573	0.04601522036032204	0.04601522036032726	-0.1745035784243627	0.1412581539107406	-0.03873787595122411	-0.01259324829844205	-0.1346848937431038	-0.07586772467588231	-0.05014235289213068	0.5486694912862731	-0.06419691254632937	0.1719597851669111	-0.2631254243361491	0.5384265366361064	0.5384265366356362	0.001706449409603268	0.01575322790433702	0.1372133075148723	-0.03423122948322556	0.1112694447988205	-0.08170477370107831	-0.03979759983948178	-0.2735277730298593	0.2765232645233794	-0.01324458726094232	-0.06095485476546019	48.82505884287571	-6.826214474992979	5.288436863161165	-10.98216870707623	-584.6575086888553	-84.73575409166494	-38.4587416528514	-2.391836970593378	-1.445986551763149	-0.98812676734086	10.13407900183752	-1.128283912584936	3.209961415353313	-4.771652879484755	9.963994176180602	9.96399417614986	0.04222682493365544	0.263049579376809	2.485157780435518	-0.601931311168467	-1.921625888415524e-07	1.741618240241708e-07	3.439858548977534e-07	1.430424130500694e-07	-6.378081106685164e-07	-5.471086935480692e-08	-5.874028159772092e-08
0.06	-0.1607867762728118	0.05423732359265462	0.8960431882498802	0.3974977914760499	-0.2635402821325018	-0.2313968982490558	-0.0223229640775275	0.05189605569361538	0.05189605569361934	-0.174483433117947	0.1414301206212729	-0.0372415463899218	-0.0129644913699914	-0.1585516577701253	-0.09013456726332128	-0.06013179804279951	0.649332141999206	-0.07509872307624754	0.2035135123533459	-0.3095171333875683	0.6372348630656287	0.637234863064954	0.002333333052325889	0.01861588456816667	0.161922431644385	-0.03994155643277981	0.105421683785547	-0.07948317848061721	-0.03885751190338286	-0.2683727253167771	0.2690211562515343	-0.0116183144849046	-0.05631519391106277	46.63078069960969	-7.203021522860641	5.411014016880066	-10.12662247936155	-582.4817572068041	-84.39881558996557	-38.61850575079453	-2.422287346719098	-1.410310849124239	-1.017478275520667	10.08506214101431	-1.049351730705265	3.091864990866691	-4.465133550960378	9.866187646210822	9.866187646210506	0.1002784445982972	0.3400565580591207	2.481496934314303	-0.5318646439136043	-2.10773988441376e-07	1.892208178542124e-07	3.686664463898689e-07	1.625599451777849e-07	-7.25804771745612e-07	-4.790263787618519e-08	-6.259258826536503e-08
0.07000000000000001	-0.1624881442576147	0.05326660465794513	0.8953914380948576	0.404482343651915	-0.26434274523396	-0.2292078864014813	-0.02564151708579498	0.05875064759291543	0.05875064759292187	-0.1744566493665846	0.1416303471330006	-0.03550157830070187	-0.01339041412823612	-0.1815530421160369	-0.1039209531424787	-0.07024116693792176	0.7470420384603026	-0.08527055978034372	0.2341360894201378	-0.3538409785221033	0.7331891380166405	0.733189138016464	0.003021152334705683	0.02141059648675009	0.1859605696795961	-0.04516016346588238	0.09858502874846536	-0.07601724982626187	-0.03780510281117258	-0.2628234113611575	0.2610172682285816	-0.01068156587856291	-0.05089281631737784	44.22191672664931	-7.267145688621363	5.511551766814482	-9.129961748704554	-580.7190681375562	-83.28726172715409	-38.79820643359108	-2.213737838986315	-1.349529728247739	-1.011252520514669	9.53349174890171	-0.9826433723848494	3.024484772190829	-4.36313653316412	9.385903168109673	9.385903168184614	0.05275987653562574	0.2463024517759129	2.348365637742393	-0.5045035494093956	-2.18355012651836e-07	1.797434981537481e-07	3.851950917695267e-07	1.719405394740096e-07	-7.692107924596685e-07	-5.212550484261883e-08	-6.525796707837943e-08
0.08	-0.1644144608579678	0.05216067641025697	0.8946378769860822	0.412427902462439	-0.2652432354488838	-0.2267172426417163	-0.02939273385310078	0.06654995339143596	0.06654995339144847	-0.1744230421810963	0.1418579455525196	-0.03352455015120621	-0.01386605192009198	-0.2035413808803128	-0.1171764298590568	-0.08049398879332496	0.8415334689311775	-0.09470414576935998	0.2638398947911454	-0.3960498851952046	0.8261776429101836	0.8261776429105068	0.003698019876196392	0.02409026612605096	0.2093344436995222	-0.04988456315501778	0.09174837371135929	-0.07255132117191343	-0.03675269371895721	-0.2572740974055604	0.2530133802056183	-0.009744817272230298	-0.04547043872370251	41.88102176954758	-7.340463293798535	5.610464785747601	-8.310976277802759	-577.9672333270339	-82.08075814293234	-38.99427169267833	-2.219678230392008	-1.304129016608372	-1.046168867576857	9.441368942969936	-0.9017015876892932	2.908110651709853	-4.042145858673662	9.273033634717066	9.273033634717043	0.09808809642046019	0.3170481022026093	2.34864413125732	-0.4330231751201684	-2.252243997404017e-07	1.686831904835737e-07	4.011978051419293e-07	1.806671377811059e-07	-8.09739997666432e-07	-5.70600555797012e-08	-6.784676990077254e-08
